<svg width="118" height="118" viewBox="0 0 118 118" fill="none" xmlns="http://www.w3.org/2000/svg">
<g clip-path="url(#clip0)">
<path d="M14.2316 74.5167H103.641V116.271H14.2316V74.5167Z" fill="#C97F4C"/>
<path d="M19.6152 77.2931H23.1299V114.48H19.6152V77.2931Z" fill="#AA6344"/>
<path d="M28.3892 77.2931H31.9047V114.48H28.3892V77.2931Z" fill="#AA6344"/>
<path d="M37.1641 77.2931H40.6796V114.48H37.1641V77.2931Z" fill="#AA6344"/>
<path d="M45.939 77.2931H49.4536V114.48H45.939V77.2931Z" fill="#AA6344"/>
<path d="M54.7138 77.2931H58.2285V114.48H54.7138V77.2931Z" fill="#AA6344"/>
<path d="M63.4887 77.2931H67.0034V114.48H63.4887V77.2931Z" fill="#AA6344"/>
<path d="M72.2636 77.2931H75.7783V114.48H72.2636V77.2931Z" fill="#AA6344"/>
<path d="M81.0376 77.2931H84.5531V114.48H81.0376V77.2931Z" fill="#AA6344"/>
<path d="M89.8125 77.2931H93.328V114.48H89.8125V77.2931Z" fill="#AA6344"/>
<path d="M14.2316 74.5167V78.6174H79.138C89.9808 78.6174 98.7701 87.4067 98.7701 98.2486V116.272H103.641V74.5167H14.2316Z" fill="#AA6344"/>
<path d="M30.0412 112.093L48.1213 71.5449L58.6382 72.2228L37.3901 110.51C36.3692 112.35 34.6559 113.704 32.6312 114.273L32.0641 114.433C30.6705 114.825 29.4515 113.415 30.0412 112.093Z" fill="#FECBAA"/>
<path d="M103.6 74.5167H14.2721C10.2731 74.5167 7.0304 71.2749 7.0304 67.275C7.0304 66.9482 7.29597 66.6826 7.62367 66.6826H110.249C110.576 66.6826 110.842 66.9482 110.842 67.275C110.842 71.2749 107.6 74.5167 103.6 74.5167Z" fill="#C97F4C"/>
<path d="M30.7785 75.1631L43.3679 107.542L39.9378 116.211H40.7733C42.9906 116.211 45.1009 115.252 46.5584 113.581L49.5104 110.2C50.2099 109.398 50.4845 108.308 50.2468 107.27L40.1287 70.01L30.7785 75.1631Z" fill="#FEDFC5"/>
<path d="M61.312 75.5683V81.8431C61.312 82.5264 60.8916 83.1386 60.2524 83.3781C57.9684 84.2369 54.9147 85.1768 51.2344 85.7467C50.0271 85.9358 48.7524 86.0861 47.4155 86.1761C46.49 86.2427 45.5321 86.2806 44.549 86.2869C37.5368 86.331 31.8966 84.7402 28.2722 83.3781C27.6348 83.1386 27.217 82.5264 27.217 81.8458V75.8618C27.217 74.9732 27.3692 74.0882 27.6717 73.251L33.1525 58.0328H56.7314L61.0302 73.5049C61.2175 74.1765 61.312 74.8715 61.312 75.5683Z" fill="#E4F4FF"/>
<path d="M33.1534 58.032L32.363 37.8823C32.3549 37.6761 32.0587 37.6536 32.0191 37.8553L27.4034 61.3999C26.802 64.4689 24.112 66.6827 20.9845 66.6827H14.1551L20.4029 61.2352C20.6406 61.0281 20.8017 60.7472 20.8594 60.4366L25.8414 33.6933C26.6994 29.0876 29.8179 25.2228 34.1392 23.4123L38.0256 21.7837C42.5008 19.9085 47.545 19.9283 52.0058 21.8369L55.823 23.4699C59.9894 25.2525 63.026 28.9535 63.9605 33.3873L69.841 61.2784C69.9193 61.6484 70.1192 61.9806 70.4082 62.2228L75.7287 66.6827H69.4269C66.5469 66.6827 64.0307 64.7336 63.3123 61.9446L57.2679 38.4855C57.1878 38.1749 56.7304 38.2325 56.7304 38.553V58.0329H33.1534V58.032Z" fill="#FEDFC5"/>
<path d="M28.1749 39.536L23.8888 61.3999C23.2874 64.4689 20.5974 66.6818 17.4698 66.6818H20.9845C24.112 66.6818 26.802 64.4689 27.4034 61.3999L32.0191 37.8552C32.0191 37.8552 28.9816 37.1674 28.1749 39.536Z" fill="#FECBAA"/>
<path d="M70.4092 62.2229C70.1193 61.9799 69.9194 61.6477 69.842 61.2776L63.9605 33.3873C63.0261 28.9526 59.9895 25.2525 55.823 23.4691L52.0059 21.836C49.2033 20.6368 46.1694 20.1849 43.1913 20.4784C45 20.6566 46.7879 21.1077 48.4912 21.836L52.3075 23.4691C56.4748 25.2525 59.5105 28.9526 60.4459 33.3873L66.1968 60.6619C66.3589 61.4307 66.7748 62.123 67.3762 62.6271L72.2142 66.682H75.7297L70.4092 62.2229Z" fill="#FECBAA"/>
<path d="M53.2158 41.1214V58.0321H56.7313V38.553C56.7313 38.553 53.2158 38.5953 53.2158 41.1214Z" fill="#FECBAA"/>
<path d="M38.2453 14.6312V7.91786C38.2453 4.49954 41.0163 1.72852 44.4355 1.72852H45.8678C49.2862 1.72852 52.0581 4.49954 52.0581 7.91786V14.6312C52.0581 18.0495 49.2862 20.8205 45.8678 20.8205H44.4355C41.0163 20.8205 38.2453 18.0495 38.2453 14.6312Z" fill="#FEDFC5"/>
<path d="M45.8678 1.72852H44.4355C43.7783 1.72852 43.1463 1.83205 42.5522 2.0211C45.0495 2.81784 46.859 5.15674 46.859 7.91786V14.6312C46.859 17.3923 45.0495 19.7312 42.5522 20.5279C43.1463 20.7179 43.7783 20.8205 44.4355 20.8205H45.8678C49.2871 20.8205 52.0581 18.0495 52.0581 14.6312V7.91786C52.0581 4.49954 49.2862 1.72852 45.8678 1.72852Z" fill="#FECBAA"/>
<path d="M107.486 117.942H10.3866C9.42961 117.942 8.65448 117.167 8.65448 116.211C8.65448 115.255 9.42961 114.479 10.3866 114.479H107.486C108.443 114.479 109.218 115.255 109.218 116.211C109.218 117.167 108.443 117.942 107.486 117.942Z" fill="#7F4233"/>
<path d="M109.943 73.6192C111.638 71.9249 112.571 69.6715 112.571 67.2759C112.571 65.9957 111.53 64.9541 110.249 64.9541H76.358L71.5308 60.9083L65.6512 33.0289C64.6006 28.0514 61.1805 23.8831 56.5018 21.8791L52.6847 20.247C52.3867 20.12 52.0851 20.0021 51.7808 19.8896C53.0268 18.4905 53.7866 16.6477 53.7866 14.6311V7.91783C53.7866 3.55245 50.2341 0 45.8688 0H44.4355C40.0693 0 36.5168 3.55245 36.5168 7.91783V14.6311C36.5168 16.5955 37.2379 18.3942 38.4272 19.7797C38.0671 19.9058 37.7106 20.0417 37.3577 20.1893L33.4703 21.8188C28.5981 23.8606 25.1105 28.181 24.1418 33.3764L21.5571 47.2513C21.3816 48.1903 22.0009 49.0924 22.939 49.2679C23.0461 49.2877 23.1533 49.2967 23.2577 49.2967C24.0743 49.2967 24.8008 48.716 24.9556 47.8851L27.5403 34.0102C28.2947 29.9635 31.0117 26.5974 34.8063 25.0076L38.6937 23.3772C39.9153 22.8658 41.1946 22.5084 42.5009 22.3086C43.1203 22.4652 43.7675 22.5489 44.4355 22.5489H45.8688C46.4782 22.5489 47.0706 22.4769 47.6414 22.3464C48.9072 22.5597 50.145 22.9207 51.3253 23.4258L55.1415 25.0571C58.7858 26.6181 61.4506 29.8654 62.2689 33.7428L68.1494 61.6267C68.3034 62.3722 68.7103 63.0537 69.2973 63.547L70.9762 64.9541H69.4269C67.3347 64.9541 65.5089 63.5389 64.9868 61.5115L58.9415 38.0461C58.684 37.0594 57.7631 36.4364 56.7494 36.567C55.7375 36.6975 55.0029 37.532 55.0029 38.5529V56.3035H50.0055C49.7462 56.2279 49.4653 56.2107 49.1826 56.2675C49.1331 56.2774 49.0863 56.29 49.0386 56.3035H34.8144L34.0906 37.8219C34.0573 36.855 33.3047 36.0682 32.3396 35.9917C31.3736 35.9152 30.5057 36.576 30.3221 37.523L25.7073 61.0659C25.2653 63.3192 23.2784 64.9541 20.9827 64.9541H18.7672L21.5337 62.5432C22.0658 62.0841 22.4295 61.4476 22.5573 60.7526L23.6196 55.0521C23.7943 54.1131 23.1758 53.2111 22.2368 53.0364C21.2987 52.8618 20.3958 53.4802 20.2211 54.4192L19.1795 60.009L13.5069 64.9541H7.62281C7.01153 64.9541 6.43356 65.1909 5.99423 65.6203C5.98523 65.6293 5.97622 65.6383 5.96722 65.6473C5.5378 66.0867 5.30103 66.6646 5.30103 67.2759C5.30103 71.6062 8.40154 75.2405 12.504 76.0688V114.482H10.3866C9.43234 114.482 8.65811 115.256 8.65811 116.211C8.65811 117.166 9.43234 117.939 10.3866 117.939H13.7869C13.9292 117.978 14.0786 118 14.2335 118H103.64C103.795 118 103.944 117.978 104.086 117.939H107.486C108.442 117.939 109.215 117.166 109.215 116.211C109.215 115.256 108.442 114.482 107.486 114.482H105.368V76.0724C107.09 75.7285 108.675 74.8867 109.943 73.6192ZM39.9738 14.6311V7.91783C39.9738 5.45831 41.9751 3.45702 44.4355 3.45702H45.8688C48.3283 3.45702 50.3296 5.45831 50.3296 7.91783V14.6311C50.3296 17.0906 48.3283 19.0919 45.8688 19.0919H44.4355C41.9751 19.0919 39.9738 17.0906 39.9738 14.6311ZM61.6396 62.374C61.8827 63.3192 62.2896 64.1871 62.8217 64.9541H60.4486L58.4599 57.797V50.0331L61.6396 62.374ZM55.4179 59.7614L59.3646 73.9667C59.4358 74.2215 59.4889 74.4843 59.5276 74.7679C59.5645 75.0209 59.5834 75.291 59.5834 75.5691V81.7837C56.7755 82.8361 53.8415 83.6013 50.8607 84.0568C50.651 84.0893 50.4412 84.119 50.2305 84.1487C48.8207 82.4103 46.6601 79.1135 46.995 75.552C47.1886 73.4958 48.2293 70.9472 48.2392 70.9229C48.7091 69.7831 49.1232 69.1088 49.5229 68.458C49.8344 67.9511 50.1567 67.4262 50.4709 66.7465C51.4108 64.7129 51.7619 62.3695 51.5269 59.7614H55.4179ZM36.1063 114.482C37.2487 113.659 38.2111 112.592 38.9007 111.35L41.308 107.013L41.5115 107.537L38.763 114.482H36.1063ZM37.9959 98.4962L39.6785 102.824L35.8776 109.672C35.0863 111.097 33.7323 112.169 32.164 112.61L31.6365 112.757L37.9959 98.4962ZM42.5936 114.198L44.9757 108.179C45.1359 107.773 45.1377 107.322 44.9802 106.915L43.1941 102.325C43.1932 102.321 43.1923 102.319 43.1905 102.316L39.7344 93.4277C39.7281 93.4115 39.7218 93.3953 39.7155 93.3782L37.436 87.5139C39.3526 87.7947 41.2873 87.9595 43.2229 88.0027L44.9487 94.3586C44.9496 94.3622 44.9505 94.3649 44.9514 94.3676L48.5669 107.683C48.6695 108.171 48.5354 108.685 48.2068 109.064L45.2566 112.445C44.5373 113.269 43.6136 113.87 42.5936 114.198ZM46.7906 87.9469C47.1868 87.9262 47.582 87.901 47.9781 87.8704L47.166 89.3315L46.7906 87.9469ZM48.0546 59.7614C48.2905 61.8869 48.0492 63.7451 47.3326 65.2962C47.1039 65.7905 46.86 66.1875 46.5773 66.6475C46.128 67.3794 45.6185 68.2086 45.0423 69.6067C44.9154 69.9164 43.791 72.7072 43.5533 75.2279C43.3786 77.0915 43.5713 80.5143 46.2064 84.516C45.6491 84.5403 45.0927 84.5556 44.5373 84.5583C41.3926 84.5781 38.2363 84.2549 35.1565 83.5968C35.1286 83.5896 35.0998 83.5824 35.071 83.577C32.9986 83.1323 30.9379 82.5291 28.9456 81.7846V75.8617C28.9456 75.5115 28.9762 75.1613 29.0365 74.8201C29.0977 74.4789 29.1851 74.1485 29.2976 73.837L34.367 59.7614H48.0546ZM29.1004 61.7312L31.1566 51.2404L31.4123 57.7637L28.8222 64.9541H27.7041C28.3793 64.0142 28.8664 62.9231 29.1004 61.7312ZM8.87598 68.4111H27.5772L26.0467 72.6613C26.0314 72.7036 26.0179 72.7468 26.0035 72.79H14.2416C11.6074 72.7756 9.39993 70.8959 8.87598 68.4111ZM15.9611 76.247H25.4886V81.8458C25.4886 83.2403 26.3618 84.5061 27.6645 84.9967C29.5434 85.7025 31.4789 86.2904 33.4298 86.7504L36.2332 93.9607L28.4612 111.39C28.0075 112.41 28.0732 113.543 28.6098 114.482H15.9611V76.247ZM48.0672 114.482L50.813 111.335C51.8726 110.118 52.2904 108.454 51.9311 106.884C51.9257 106.861 51.9203 106.839 51.914 106.816L48.4651 94.1137L52.23 87.3338C55.1766 86.8279 58.0764 86.0455 60.86 84.9967C62.1636 84.507 63.0404 83.2394 63.0404 81.8431V75.5682C63.0404 75.1235 63.0098 74.6869 62.9513 74.2863C62.8946 73.8658 62.8082 73.4481 62.6956 73.0421L61.4091 68.4111H108.998C108.781 69.4509 108.267 70.4052 107.498 71.174C106.466 72.2076 105.092 72.781 103.64 72.79H70.3182C69.363 72.79 68.5896 73.5634 68.5896 74.5185C68.5896 75.4728 69.363 76.247 70.3182 76.247H101.911V114.482H48.0672Z" fill="black"/>
<path d="M78.0991 54.7326C79.0543 54.7326 79.8277 53.9584 79.8277 53.0041C79.8277 49.9306 80.772 48.4686 81.8659 46.7751C83.0794 44.8954 84.4559 42.7645 84.4559 38.6718C84.4559 34.5792 83.0794 32.4483 81.8659 30.5676C81.3482 29.7655 80.2778 29.5359 79.4757 30.0536C78.6744 30.5712 78.4439 31.6416 78.9616 32.4429C80.0545 34.1363 80.9989 35.5983 80.9989 38.6718C80.9989 41.7444 80.0545 43.2074 78.9616 44.8999C77.7471 46.7806 76.3715 48.9115 76.3715 53.0041C76.3706 53.9584 77.1449 54.7326 78.0991 54.7326Z" fill="black"/>
<path d="M78.0991 26.0672C79.0543 26.0672 79.8276 25.2939 79.8276 24.3387C79.8276 21.2652 80.772 19.804 81.8658 18.1106C83.0794 16.2309 84.4559 14.0999 84.4559 10.0073C84.4559 9.05214 83.6826 8.27881 82.7274 8.27881C81.7722 8.27881 80.9989 9.05214 80.9989 10.0073C80.9989 13.0808 80.0545 14.542 78.9616 16.2354C77.7471 18.1151 76.3706 20.2461 76.3706 24.3387C76.3706 25.2939 77.1448 26.0672 78.0991 26.0672Z" fill="black"/>
<path d="M91.4294 54.7325C92.3845 54.7325 93.1579 53.9583 93.1579 53.004C93.1579 49.9305 94.1023 48.4685 95.1961 46.7751C95.4932 46.315 95.8002 45.8397 96.0955 45.322C96.5681 44.492 96.2782 43.4369 95.4491 42.9642C94.619 42.4916 93.5639 42.7806 93.0913 43.6106C92.8437 44.0446 92.5754 44.4605 92.2909 44.8998C91.0773 46.7805 89.7008 48.9114 89.7008 53.004C89.7008 53.9583 90.4751 54.7325 91.4294 54.7325Z" fill="black"/>
<path d="M94.3291 38.6719C94.3291 39.6262 95.1033 40.4004 96.0576 40.4004C97.0128 40.4004 97.7861 39.6262 97.7861 38.6719C97.7861 34.5784 96.4096 32.4475 95.1961 30.5677C94.1022 28.8743 93.1588 27.4123 93.1588 24.3387C93.1588 21.2652 94.1022 19.8032 95.1961 18.1107C96.4105 16.23 97.7861 14.0991 97.7861 10.0074C97.7861 9.05219 97.0128 8.27795 96.0576 8.27795C95.1033 8.27795 94.3291 9.05219 94.3291 10.0074C94.3291 13.08 93.3847 14.542 92.2918 16.2354C91.0773 18.1152 89.7008 20.2461 89.7008 24.3387C89.7008 28.4314 91.0773 30.5623 92.2918 32.443C93.3847 34.1364 94.3291 35.5984 94.3291 38.6719Z" fill="black"/>
<path d="M102.912 53.0041C102.912 53.9584 103.686 54.7326 104.641 54.7326C105.596 54.7326 106.37 53.9584 106.37 53.0041C106.37 49.9306 107.314 48.4686 108.407 46.7752C109.622 44.8954 110.998 42.7645 110.998 38.6719C110.998 34.5783 109.622 32.4474 108.407 30.5676C107.314 28.8742 106.37 27.4122 106.37 24.3387C106.37 23.2872 106.479 22.3707 106.705 21.5361C106.954 20.6152 106.409 19.6654 105.487 19.4169C104.567 19.1675 103.617 19.7122 103.368 20.6341C103.062 21.7666 102.912 22.9784 102.912 24.3387C102.912 28.4313 104.289 30.5622 105.503 32.4429C106.596 34.1363 107.541 35.5974 107.541 38.6719C107.541 41.7454 106.596 43.2065 105.503 44.8999C104.289 46.7806 102.912 48.9115 102.912 53.0041Z" fill="black"/>
<path d="M107.357 16.7369C107.605 16.8611 107.87 16.9205 108.13 16.9205C108.763 16.9205 109.373 16.5721 109.677 15.9671C110.578 14.1729 110.998 12.2787 110.998 10.0074C110.998 9.05219 110.224 8.27795 109.269 8.27795C108.314 8.27795 107.541 9.05219 107.541 10.0074C107.541 12.2319 107.031 13.5319 106.587 14.416C106.159 15.2694 106.503 16.3083 107.357 16.7369Z" fill="black"/>
</g>
<defs>
<clipPath id="clip0">
<rect width="118" height="118" fill="white"/>
</clipPath>
</defs>
</svg>
