<svg width="122" height="122" viewBox="0 0 122 122" fill="none" xmlns="http://www.w3.org/2000/svg">
<g clip-path="url(#clip0)">
<path d="M61 122C94.6894 122 122 94.6894 122 61C122 27.3106 94.6894 0 61 0C27.3106 0 0 27.3106 0 61C0 94.6894 27.3106 122 61 122Z" fill="#FFCF11"/>
<path d="M61 102.699C84.0298 102.699 102.699 84.0298 102.699 61C102.699 37.9702 84.0298 19.3008 61 19.3008C37.9702 19.3008 19.3008 37.9702 19.3008 61C19.3008 84.0298 37.9702 102.699 61 102.699Z" fill="#FFE854"/>
<path d="M76.5512 97.9883L61 92.9365L45.449 97.9883C45.449 97.9883 -1.82666 97.8539 7.28259 116.933H61H114.717C123.827 97.8542 76.5512 97.9883 76.5512 97.9883Z" fill="#0C99E6"/>
<path d="M114.717 116.933C113.251 119.947 102.509 122.742 81.7965 121.227C61.0841 119.711 42.0557 115.333 42.0557 115.333V111.926C42.0557 111.926 80.7861 107.924 95.352 108.176C109.918 108.429 116.233 113.817 114.717 116.933Z" fill="#FFAEA1"/>
<path d="M96.2711 108.494C96.2766 108.401 96.2792 108.303 96.2804 108.203C95.9733 108.193 95.6671 108.182 95.3523 108.176C80.7864 107.924 42.0559 111.926 42.0559 111.926V115.333C42.0559 115.333 53.0428 117.861 67.4062 119.739C68.9324 119.407 70.4495 119.072 71.9476 118.736C77.9263 117.395 83.0008 116.167 86.6224 115.185C88.6487 114.636 90.1811 114.177 91.3075 113.781C92.7291 113.281 96.0586 112.109 96.2711 108.494Z" fill="#F4958C"/>
<path d="M7.28259 116.933C8.89861 119.871 15.4497 124.09 35.4884 120.806C55.5272 117.522 91.144 109.629 91.2281 108.197C91.3122 106.766 87.9429 104.051 83.5648 104.051C79.1866 104.051 78.513 105.324 75.9869 105.324C73.4609 105.324 70.2615 101.356 67.5673 101.904C64.873 102.451 63.2732 107.924 63.2732 107.924C63.2732 107.924 37.7616 106.24 24.206 107.082C10.6505 107.924 5.43019 113.565 7.28259 116.933Z" fill="#FFCFC2"/>
<path d="M17.3862 116.933C15.5338 113.565 20.7541 107.924 34.3096 107.082C35.7162 106.994 37.2529 106.934 38.8749 106.897C33.5819 106.803 28.3383 106.825 24.206 107.082C10.6505 107.924 5.43019 113.565 7.28259 116.933C8.67511 119.465 13.7343 122.947 27.9313 121.76C21.2342 121.024 18.3786 118.737 17.3862 116.933Z" fill="#FFAEA1"/>
<path d="M4.89978 99.5041C4.89978 99.5041 4.89978 96.3888 4.89978 95.5889C4.89978 94.789 6.07856 94.7049 6.41525 95.5889C6.75194 96.4729 6.65234 99.5918 7.14415 100.453V101.904L4.89978 99.5041Z" fill="#F4958C"/>
<path d="M117.1 99.5041C117.1 99.5041 117.1 96.3888 117.1 95.5889C117.1 94.789 115.921 94.7049 115.585 95.5889C115.248 96.4729 115.348 99.5918 114.856 100.453V101.904L117.1 99.5041Z" fill="#F4958C"/>
<path d="M119.426 97.3255C119.237 96.7887 118.416 97.0098 117.785 97.7044C117.343 98.1898 115.669 99.7231 114.582 100.7C114.05 101.177 113.25 101.189 112.705 100.728C111.944 100.085 112.056 98.8786 112.925 98.3909C114.162 97.6968 115.61 96.751 115.89 95.9992C116.395 94.6415 115.164 94.4838 114.501 94.9572C113.838 95.4309 105.481 97.7358 105.481 97.7358L91.6141 79.0441C91.6141 79.0441 90.7723 52.1012 87.4042 49.3226C84.0363 46.544 66.557 43.5971 66.557 43.5971V37.535H61H55.443V43.5971C55.443 43.5971 37.9637 46.544 34.5958 49.3226C31.2279 52.1012 30.3859 79.0441 30.3859 79.0441L16.5188 97.7358C16.5188 97.7358 8.16233 95.4309 7.49919 94.9572C6.83605 94.4835 5.60485 94.6415 6.11001 95.9992C6.38975 96.7513 7.8385 97.6968 9.07542 98.3909C9.94419 98.8784 10.0564 100.085 9.29535 100.728C8.74993 101.188 7.94954 101.177 7.41865 100.7C6.33137 99.7231 4.65697 98.1895 4.21567 97.7044C3.58423 97.0098 2.76335 96.7887 2.57392 97.3255C2.38448 97.8624 5.19453 101.904 5.85767 102.819C6.52081 103.735 9.42545 105.629 11.2252 105.282C13.0249 104.935 19.2974 101.525 19.2974 101.525C19.2974 101.525 37.3156 87.9694 38.9995 83.1702C40.6834 78.371 42.0307 62.18 42.0307 62.18H79.9698C79.9698 62.18 81.317 78.371 83.001 83.1702C84.6849 87.9694 102.703 101.525 102.703 101.525C102.703 101.525 108.976 104.935 110.776 105.282C112.575 105.629 115.48 103.735 116.143 102.819C116.806 101.904 119.616 97.8621 119.426 97.3255Z" fill="#FFAEA1"/>
<path d="M55.443 43.5974C55.443 43.5974 63.9468 44.271 64.7889 37.5353H55.443V43.5974Z" fill="#F4958C"/>
<path d="M71.6419 18.2709C71.6419 18.2709 72.2316 13.8718 70.1133 11.4156C69.7959 11.0477 69.1931 11.2981 69.2317 11.7825L69.2567 12.0939C69.2567 12.0939 68.041 9.72209 64.9121 8.79065C64.4777 8.66127 64.1124 9.13926 64.3436 9.52909L64.4863 9.76975C64.4863 9.76975 62.6003 7.88376 56.3495 7.75342C55.8903 7.74388 55.663 8.3079 55.9982 8.62147L56.3564 8.95626C56.3561 8.95626 54.0026 9.37134 50.8845 11.2592C50.4997 11.4923 50.5957 12.0766 51.0341 12.1766L51.2893 12.235C50.0824 13.6228 49.4152 15.0682 49.075 15.9994C48.9272 16.404 49.3235 16.7943 49.7257 16.6401C50.1279 16.4859 48.7681 21.0843 49.9283 24.9192L61 27.42L72.0717 24.919C72.0717 24.919 72.7427 21.6957 71.6419 18.2709Z" fill="#8C4F5C"/>
<path d="M56.4712 18.0491C53.2092 17.3495 50.8883 16.0689 49.726 16.6399C49.726 16.6399 48.7683 21.084 49.9285 24.9189L56.7626 26.4628L56.4712 18.0491Z" fill="#7B3C47"/>
<path d="M69.4492 27.0373C69.4492 27.0373 70.5374 24.3876 72.4773 25.0028C74.4171 25.6178 72.4304 31.3599 68.6448 31.7216L69.4492 27.0373Z" fill="#FFAEA1"/>
<path d="M52.5508 27.0373C52.5508 27.0373 51.4626 24.3876 49.5227 25.0028C47.5829 25.6178 49.5697 31.3599 53.3552 31.7216L52.5508 27.0373Z" fill="#F4958C"/>
<path d="M69.7204 23.6937C69.6096 23.4235 69.52 23.0365 69.4351 22.5895L61 20.1431L52.5648 22.5895C52.48 23.0365 52.3904 23.4235 52.2796 23.6937C51.7811 24.9094 51.1549 25.157 51.0715 25.1853C51.0653 25.3755 51.0615 25.5666 51.0615 25.7596C51.0615 33.0779 55.5112 41.6611 61 41.6611C66.4888 41.6611 70.9385 33.0782 70.9385 25.7596C70.9385 25.5666 70.9347 25.3755 70.9285 25.1853C70.8451 25.157 70.2189 24.9092 69.7204 23.6937Z" fill="#FFCFC2"/>
<path d="M54.4792 25.7594C54.4792 24.3957 54.6355 23.1051 54.9229 21.9054L52.5646 22.5893C52.4798 23.0363 52.3902 23.4232 52.2794 23.6935C51.7809 24.9092 51.1547 25.1567 51.0713 25.1851C51.0651 25.3752 51.0613 25.5663 51.0613 25.7594C51.0613 33.0777 55.5109 41.6608 60.9998 41.6608C61.5826 41.6608 62.1533 41.5631 62.7085 41.3816C58.0344 39.8518 54.4792 32.3009 54.4792 25.7594Z" fill="#FFAEA1"/>
<path d="M61 18.8009C57.5261 18.8009 56.1357 17.6995 54.9336 17.6967H54.9322C54.7098 17.6962 54.4937 17.7336 54.2724 17.8222C53.1472 18.2735 52.8896 20.8787 52.5646 22.5893H69.4352C69.1101 20.8787 68.8528 18.2735 67.7274 17.8222C67.5058 17.7334 67.2899 17.6962 67.0676 17.6967H67.0662C65.8643 17.6995 64.4741 18.8009 61 18.8009Z" fill="white"/>
<path d="M59.1057 20.6952C59.1057 19.6489 59.9537 18.8009 61 18.8009C57.5261 18.8009 56.1357 17.6995 54.9336 17.6967H54.9322C54.7098 17.6962 54.4937 17.7336 54.2724 17.8222C53.1472 18.2735 52.8896 20.8787 52.5646 22.5893H61C59.9537 22.5895 59.1057 21.7412 59.1057 20.6952Z" fill="#EBF0F3"/>
<path d="M79.9696 62.1795L77.0297 72.2288C76.7118 73.3153 76.5502 74.4419 76.5502 75.574V97.9882H45.4498V75.574C45.4498 74.4417 45.2884 73.3153 44.9703 72.2288L42.0304 62.1795C43.5697 62.1795 44.8159 60.9333 44.8159 59.394V45.7595C47.2154 45.1877 49.6102 44.692 51.5164 44.3203V50.8016C51.5164 56.0392 55.7623 60.2852 61 60.2852C66.2377 60.2852 70.4836 56.0392 70.4836 50.8016V44.3203C72.3898 44.692 74.7846 45.1877 77.1841 45.7595V59.394C77.1841 60.9333 78.4303 62.1795 79.9696 62.1795Z" fill="#3E4A68"/>
<path d="M60.6588 73.1523C51.7394 73.1523 49.0416 71.8367 47.423 69.6071L42.0304 62.1794L44.9706 72.2287C45.2884 73.3153 45.4498 74.4419 45.4498 75.5739V97.9883H50.5156V76.376C50.5156 75.7164 50.4272 75.0647 50.2633 74.434C57.7975 74.2434 60.6588 73.1523 60.6588 73.1523Z" fill="#303A59"/>
</g>
<defs>
<clipPath id="clip0">
<rect width="122" height="122" fill="white"/>
</clipPath>
</defs>
</svg>
