<svg width="151" height="151" viewBox="0 0 151 151" fill="none" xmlns="http://www.w3.org/2000/svg">
<g clip-path="url(#clip0)">
<path d="M46.3751 38.4505C20.8781 38.4505 0.186977 59.0269 0.00117593 84.4802C-0.18551 110.072 20.7835 131.201 46.3754 131.2C56.2255 131.2 65.3566 128.127 72.8665 122.89C74.449 121.786 76.5507 121.786 78.1332 122.89C85.6431 128.127 94.7742 131.2 104.624 131.2C130.216 131.201 151.185 110.072 150.999 84.4805C150.813 59.0269 130.122 38.4502 104.625 38.4502C94.7733 38.4502 85.6413 41.5242 78.1306 46.762C76.5495 47.8647 74.449 47.8647 72.8683 46.762C65.3584 41.5239 56.2261 38.4505 46.3751 38.4505Z" fill="#D2D2D7"/>
<path d="M140.309 84.5598V84.8194C140.309 87.0614 140.098 89.276 139.686 91.4386C138.367 98.3908 134.97 104.821 129.805 109.992C123.026 116.773 114.086 120.509 104.626 120.509C97.2884 120.509 90.2416 118.301 84.2484 114.122C79.0159 110.472 71.9844 110.472 66.7519 114.122C60.7588 118.301 53.7119 120.509 46.3748 120.509C36.9149 120.509 27.9708 116.773 21.1958 109.992C14.4208 103.214 10.6909 94.2734 10.6909 84.8194V84.5566C10.7429 77.3631 12.9147 70.4994 16.9041 64.6894C18.1658 62.8477 19.6106 61.1126 21.2294 59.5059C27.9587 52.8224 36.8904 49.1417 46.3748 49.1417C53.7119 49.1417 60.7588 51.3501 66.7519 55.5318C71.9844 59.1791 79.0159 59.1791 84.2455 55.5318C90.2416 51.3501 97.2887 49.1417 104.626 49.1417C114.11 49.1417 123.042 52.8227 129.771 59.5059C136.497 66.1865 140.239 75.0843 140.309 84.5598Z" fill="#07A9F0"/>
<path d="M140.309 84.5599V84.8194C140.309 87.0614 140.098 89.276 139.686 91.4387C138.431 93.2805 136.986 95.0217 135.37 96.6376C128.595 103.419 119.651 107.154 110.191 107.154C102.857 107.154 95.81 104.946 89.8169 100.767C84.5843 97.1171 77.5528 97.1171 72.317 100.767C66.3269 104.946 59.28 107.154 51.9429 107.154C42.483 107.154 33.5389 103.422 26.7639 96.6376C19.9889 89.8594 16.2591 80.9188 16.2591 71.4648V71.2052C16.2773 68.9936 16.4912 66.8159 16.9035 64.6898C18.1651 62.848 19.61 61.113 21.2288 59.5063C27.958 52.8227 36.8898 49.1421 46.3742 49.1421C53.7113 49.1421 60.7581 51.3505 66.7513 55.5322C71.9838 59.1795 79.0153 59.1795 84.2449 55.5322C90.241 51.3505 97.2881 49.1421 104.625 49.1421C114.11 49.1421 123.041 52.823 129.771 59.5063C136.497 66.1865 140.239 75.0843 140.309 84.5599Z" fill="#40C1FA"/>
<path d="M40.2941 78.3689C38.6882 78.3689 37.1393 77.7864 35.9307 76.7282C35.9251 76.7232 35.9198 76.7188 35.9151 76.7144C35.5414 76.3861 35.0622 76.205 34.5646 76.205C34.068 76.205 33.589 76.3858 33.2157 76.7147C32.0047 77.7805 30.4502 78.3671 28.8378 78.3671C27.2264 78.3671 25.6718 77.7805 24.4615 76.7155C23.5115 75.8797 23.4189 74.4323 24.2547 73.4823C25.0905 72.5324 26.5383 72.4401 27.488 73.2759C27.8616 73.6044 28.3409 73.7855 28.8378 73.7855C29.3351 73.7855 29.8146 73.6044 30.1883 73.2756C31.3986 72.21 32.9526 71.6234 34.5646 71.6234C36.1714 71.6234 37.7209 72.2059 38.9292 73.2641C38.9348 73.2691 38.9401 73.2735 38.9448 73.2776C39.3185 73.6062 39.7974 73.7873 40.2941 73.7873C40.791 73.7873 41.2703 73.6065 41.644 73.2776C42.5939 72.4418 44.0414 72.5347 44.8772 73.485C45.7127 74.4349 45.6201 75.8824 44.6699 76.7179C43.4592 77.7826 41.905 78.3689 40.2941 78.3689Z" fill="#93DCFC"/>
<path d="M61.0826 94.4207C59.4761 94.4207 57.9269 93.8379 56.7186 92.7797C56.7127 92.7747 56.708 92.7706 56.703 92.7661C56.3299 92.4382 55.8504 92.2574 55.3531 92.2574C54.8562 92.2574 54.3772 92.4382 54.0042 92.7667C52.7932 93.8326 51.2387 94.4192 49.6263 94.4192C48.0143 94.4192 46.46 93.8326 45.2497 92.7676C44.3 91.9318 44.2077 90.484 45.0435 89.5344C45.879 88.5847 47.3271 88.4918 48.2768 89.3282C48.6501 89.6565 49.1291 89.8376 49.6263 89.8376C50.1236 89.8376 50.6028 89.6568 50.9762 89.3279C52.1863 88.2624 53.7405 87.6758 55.3531 87.6758C56.9602 87.6758 58.5094 88.2583 59.7177 89.3164C59.7233 89.3214 59.7283 89.3259 59.7333 89.33C60.1067 89.6583 60.5856 89.8393 61.0826 89.8393C61.5795 89.8393 62.0588 89.6585 62.4327 89.3297C63.3827 88.4942 64.8305 88.5871 65.666 89.5373C66.5012 90.4876 66.4086 91.9351 65.4581 92.7703C64.2477 93.8344 62.694 94.4207 61.0826 94.4207Z" fill="#93DCFC"/>
<path d="M86.1082 73.6788C84.5012 73.6788 82.9523 73.0963 81.7443 72.0381C81.7387 72.0334 81.7336 72.029 81.7286 72.0245C81.355 71.6963 80.8757 71.5152 80.3782 71.5152C79.8815 71.5152 79.4026 71.696 79.0292 72.0248C77.8186 73.0904 76.264 73.677 74.6517 73.677C73.0393 73.677 71.4851 73.0904 70.2747 72.0254C69.3251 71.1896 69.2328 69.7418 70.0686 68.7922C70.9041 67.8425 72.3522 67.7499 73.3018 68.586C73.6752 68.9143 74.1544 69.0954 74.6517 69.0954C75.1489 69.0954 75.6282 68.9146 76.0015 68.5857C77.2122 67.5202 78.7661 66.9336 80.3782 66.9336C81.9849 66.9336 83.5341 67.5161 84.7427 68.574C84.7486 68.579 84.754 68.5837 84.759 68.5878C85.132 68.9158 85.611 69.0968 86.1082 69.0968C86.6052 69.0968 87.0841 68.9161 87.4578 68.5875C88.4077 67.7514 89.8552 67.8446 90.691 68.7946C91.5265 69.7445 91.4339 71.192 90.4837 72.0278C89.2736 73.0922 87.7197 73.6788 86.1082 73.6788Z" fill="#93DCFC"/>
<path d="M121.813 87.0458C120.207 87.0458 118.658 86.4637 117.45 85.4058C117.444 85.4008 117.439 85.396 117.434 85.3919C117.06 85.0637 116.581 84.8826 116.083 84.8826C115.587 84.8826 115.108 85.0634 114.734 85.3922C113.524 86.4577 111.969 87.0447 110.357 87.0447C108.744 87.0447 107.19 86.458 105.98 85.3928C105.03 84.557 104.938 83.1092 105.774 82.1595C106.609 81.2099 108.057 81.1173 109.007 81.9534C109.38 82.2817 109.86 82.4627 110.357 82.4627C110.854 82.4627 111.333 82.2819 111.707 81.9531C112.917 80.8873 114.471 80.3007 116.083 80.3007C117.69 80.3007 119.239 80.8828 120.447 81.9407C120.453 81.9457 120.458 81.9504 120.463 81.9549C120.837 82.2831 121.316 82.4642 121.813 82.4642C122.31 82.4642 122.789 82.2834 123.163 81.9546C124.113 81.1191 125.561 81.2123 126.396 82.1625C127.232 83.1127 127.138 84.5602 126.188 85.3954C124.977 86.4601 123.424 87.0458 121.813 87.0458Z" fill="#93DCFC"/>
<path d="M101.786 106.072C100.179 106.072 98.6303 105.489 97.4223 104.431C97.4167 104.426 97.4117 104.422 97.4067 104.417C97.033 104.089 96.5538 103.908 96.0563 103.908C95.5596 103.908 95.0807 104.089 94.7073 104.418C93.4966 105.483 91.9421 106.07 90.3298 106.07C88.7177 106.07 87.1635 105.483 85.9531 104.418C85.0035 103.582 84.9111 102.135 85.747 101.185C86.5828 100.235 88.0305 100.142 88.9802 100.979C89.3536 101.307 89.8325 101.488 90.3298 101.488C90.827 101.488 91.3062 101.307 91.6796 100.979C92.8903 99.913 94.4442 99.3264 96.0563 99.3264C97.663 99.3264 99.2122 99.9089 100.421 100.967C100.427 100.972 100.432 100.977 100.437 100.981C100.81 101.309 101.289 101.49 101.786 101.49C102.283 101.49 102.762 101.309 103.136 100.98C104.086 100.144 105.533 100.237 106.369 101.187C107.205 102.137 107.112 103.585 106.162 104.421C104.951 105.485 103.398 106.072 101.786 106.072Z" fill="#93DCFC"/>
<path d="M134.454 19.7996H128.962C124.158 19.7996 120.25 23.7079 120.25 28.5119V58.5243H104.977V28.5119C104.977 26.2342 106.83 24.3815 109.107 24.3815H114.599C115.864 24.3815 116.89 23.3557 116.89 22.0905C116.89 20.8253 115.864 19.7996 114.599 19.7996H109.107C104.303 19.7996 100.395 23.7079 100.395 28.5119V76.1926C100.395 77.4578 101.421 78.4835 102.686 78.4835C103.952 78.4835 104.977 77.4578 104.977 76.1926V71.0482H120.25V76.1926C120.25 77.4578 121.275 78.4835 122.541 78.4835C123.806 78.4835 124.832 77.4578 124.832 76.1926V28.5119C124.832 26.2342 126.685 24.3815 128.962 24.3815H134.454C135.719 24.3815 136.745 23.3557 136.745 22.0905C136.745 20.8253 135.719 19.7996 134.454 19.7996ZM104.977 66.4663V63.1063H120.25V66.4663H104.977Z" fill="#4B5055"/>
</g>
<defs>
<clipPath id="clip0">
<rect width="151" height="151" fill="white"/>
</clipPath>
</defs>
</svg>
