<svg width="28" height="30" viewBox="0 0 28 30" fill="none" xmlns="http://www.w3.org/2000/svg">
<path d="M21.9715 18.4572C21.4018 17.8221 20.7147 17.4825 19.9864 17.4825C19.2641 17.4825 18.5711 17.8158 17.9779 18.4509L16.122 20.4318C15.9693 20.3438 15.8166 20.262 15.6698 20.1803C15.4584 20.0671 15.2587 19.9602 15.0884 19.847C13.35 18.6647 11.7701 17.1241 10.2549 15.1306C9.52078 14.137 9.02745 13.3006 8.6692 12.4517C9.15078 11.98 9.59713 11.4895 10.0317 11.0179C10.1962 10.8418 10.3606 10.6594 10.5251 10.4834C11.7584 9.16276 11.7584 7.45228 10.5251 6.13169L8.92174 4.41492C8.73968 4.21998 8.55174 4.01874 8.37555 3.81751C8.02317 3.42762 7.65317 3.02515 7.27143 2.64784C6.70175 2.04414 6.02048 1.72343 5.30398 1.72343C4.58748 1.72343 3.89446 2.04414 3.30716 2.64784C3.30129 2.65413 3.30129 2.65413 3.29542 2.66042L1.2986 4.81739C0.546862 5.62232 0.118134 6.60333 0.0241665 7.74156C-0.116785 9.57781 0.388292 11.2883 0.775908 12.4076C1.72733 15.1557 3.14859 17.7026 5.26874 20.4318C7.84111 23.7207 10.9362 26.3179 14.4717 28.1479C15.8225 28.8333 17.6255 29.6445 19.6399 29.7829C19.7633 29.7892 19.8925 29.7955 20.0099 29.7955C21.3666 29.7955 22.506 29.2735 23.3986 28.2359C23.4045 28.2233 23.4163 28.217 23.4221 28.2045C23.7275 27.8083 24.0799 27.4498 24.4499 27.0662C24.7024 26.8084 24.9609 26.538 25.2134 26.255C25.7948 25.6073 26.1002 24.8527 26.1002 24.0792C26.1002 23.2994 25.7889 22.5511 25.1958 21.9222L21.9715 18.4572ZM24.074 25.079C24.0682 25.079 24.0682 25.0853 24.074 25.079C23.845 25.3432 23.6101 25.5821 23.3575 25.8463C22.9758 26.2361 22.5882 26.6449 22.224 27.104C21.6309 27.7831 20.932 28.1038 20.0158 28.1038C19.9277 28.1038 19.8337 28.1038 19.7456 28.0975C18.0014 27.9781 16.3804 27.2486 15.1647 26.626C11.8406 24.903 8.92174 22.4567 6.4962 19.3565C4.49351 16.7719 3.15447 14.3822 2.26765 11.8165C1.72146 10.2507 1.52178 9.03071 1.60987 7.8799C1.6686 7.14415 1.93289 6.53416 2.42034 6.01221L4.42303 3.86782C4.71081 3.57854 5.0162 3.42133 5.31573 3.42133C5.68572 3.42133 5.98525 3.6603 6.17318 3.86153C6.17905 3.86782 6.18493 3.87411 6.1908 3.88039C6.54905 4.23884 6.88969 4.60987 7.24794 5.00604C7.43 5.20728 7.61794 5.40851 7.80587 5.61603L9.4092 7.3328C10.0317 7.99939 10.0317 8.61566 9.4092 9.28225C9.23888 9.46461 9.07444 9.64698 8.90412 9.82306C8.41079 10.3639 7.94095 10.867 7.43 11.3575C7.41825 11.37 7.40651 11.3763 7.40064 11.3889C6.89556 11.9297 6.98953 12.458 7.09524 12.8164C7.10111 12.8353 7.10699 12.8541 7.11286 12.873C7.52984 13.9546 8.11714 14.9734 9.00983 16.1871L9.01571 16.1933C10.6367 18.3315 12.3457 19.9979 14.2309 21.2745C14.4717 21.438 14.7184 21.57 14.9533 21.6958C15.1647 21.809 15.3644 21.9159 15.5347 22.0291C15.5582 22.0417 15.5817 22.0606 15.6052 22.0731C15.8049 22.18 15.9928 22.2303 16.1866 22.2303C16.6741 22.2303 16.9795 21.9033 17.0793 21.7964L19.0879 19.6458C19.2876 19.4319 19.6047 19.1741 19.9747 19.1741C20.3388 19.1741 20.6383 19.4194 20.8204 19.6332C20.8263 19.6395 20.8263 19.6395 20.8322 19.6458L24.0682 23.1107C24.6731 23.7522 24.6731 24.4125 24.074 25.079Z" fill="#C6BD73"/>
<path d="M15.0179 7.08754C16.5566 7.36424 17.9544 8.14402 19.0702 9.33884C20.1861 10.5337 20.9085 12.0303 21.1728 13.6779C21.2374 14.093 21.5721 14.3822 21.9539 14.3822C22.0009 14.3822 22.042 14.376 22.089 14.3697C22.5236 14.2942 22.8113 13.854 22.7409 13.3887C22.4237 11.3952 21.5428 9.57781 20.1978 8.13773C18.8529 6.69765 17.1556 5.75437 15.2939 5.41479C14.8593 5.33933 14.454 5.64747 14.3777 6.10653C14.3013 6.5656 14.5833 7.01208 15.0179 7.08754Z" fill="#C6BD73"/>
<path d="M27.774 13.1434C27.2513 9.86079 25.8066 6.87374 23.5866 4.49667C21.3666 2.1196 18.5769 0.572623 15.5112 0.0129427C15.0825 -0.0688082 14.6773 0.245619 14.6009 0.704682C14.5304 1.17003 14.8182 1.60394 15.2528 1.68569C17.9896 2.18249 20.4856 3.57225 22.4707 5.69149C24.4558 7.81702 25.7478 10.4896 26.2118 13.4201C26.2764 13.8351 26.6112 14.1244 26.9929 14.1244C27.0399 14.1244 27.081 14.1181 27.128 14.1118C27.5567 14.0427 27.8504 13.6025 27.774 13.1434Z" fill="#C6BD73"/>
</svg>
