<svg width="123" height="123" viewBox="0 0 123 123" fill="none" xmlns="http://www.w3.org/2000/svg">
<path d="M59.5643 26.8877H45.1219C43.6076 26.8877 42.1081 27.186 40.7091 27.7655C39.3101 28.345 38.0389 29.1943 36.9681 30.2651L27.1987 40.0345C26.5704 40.6628 26.1791 41.4894 26.0916 42.3737C26.004 43.258 26.2255 44.1452 26.7184 44.8846L28.8143 48.0283L32.658 46.1064L34.1819 47.6303C34.308 47.7565 34.4579 47.8566 34.6227 47.9249C34.7876 47.9932 34.9643 48.0283 35.1428 48.0283C35.5032 48.0283 35.8489 47.8851 36.1037 47.6303C36.3586 47.3754 36.5018 47.0298 36.5018 46.6694V42.2627L44.1893 34.5752L59.5643 34.4512V26.8877Z" fill="#FFBFA1"/>
<path d="M63.408 42.2627L59.5642 51.8721L67.2517 59.5596L76.7914 69.0993C78.0767 70.3853 78.8648 72.0849 79.0159 73.8968L80.7049 94.1533L73.0174 97.9971L69.1736 76.8565L58.9997 67.8116L51.8767 61.4814L47.3339 68.7485L45.4481 71.7683C44.6533 73.0394 43.6033 74.1317 42.3645 74.976C41.1256 75.8203 39.725 76.3981 38.2512 76.6729C36.7775 76.9478 35.2627 76.9136 33.8029 76.5726C32.343 76.2316 30.9699 75.5912 29.7704 74.6919L17.283 65.3252L19.2049 57.6377L36.5017 67.2471L37.7197 62.9805L39.3293 57.3494C39.9947 55.0177 41.2441 52.8943 42.9592 51.1802C45.0115 49.1283 46.3893 46.4993 46.9087 43.644L48.5807 34.4503C48.9664 32.328 50.0847 30.4085 51.7407 29.0264C53.3968 27.6444 55.4854 26.8874 57.6424 26.8877H61.4861L63.4219 28.8234L63.408 42.2627Z" fill="#FFCEB6"/>
<path d="M59.5642 15.3564L58.0002 13.0105C57.299 11.9585 56.3488 11.096 55.2342 10.4995C54.1195 9.90294 52.8748 9.59082 51.6106 9.59082C49.2883 9.59082 47.0287 10.344 45.1709 11.7374C43.6975 12.8425 41.9644 13.5498 40.1385 13.7913C38.3126 14.0328 36.4552 13.8003 34.7451 13.1163L30.7361 11.5127L33.2804 15.7532C34.2629 17.3907 35.6527 18.7458 37.3144 19.6867C38.9762 20.6276 40.8533 21.1221 42.7629 21.1221C44.9461 21.1221 47.0804 20.4758 48.897 19.2648C49.8248 18.6463 50.8815 18.2478 51.9867 18.0998C53.0919 17.9518 54.2163 18.0582 55.2741 18.4108L57.6423 19.2002H59.5642L59.5642 15.3564Z" fill="#B66514"/>
<path d="M99.9236 113.372H5.75169L11.5173 103.763H99.9236V113.372Z" fill="#62798C"/>
<path d="M117.22 113.372H88.3923L98.0017 99.9191H117.22V113.372Z" fill="#8098AB"/>
<path d="M107.611 53.7941H117.22V99.9191H107.611V53.7941Z" fill="#62798C"/>
<path d="M74.9392 53.7941L78.7829 46.1066H117.22V53.7941H74.9392Z" fill="#8098AB"/>
<path d="M63.408 42.2627L59.5642 51.8721L46.212 46.1497C46.5194 45.3372 46.7526 44.4986 46.9087 43.644L48.5808 34.4503C48.9664 32.328 50.0847 30.4085 51.7407 29.0264C53.3968 27.6444 55.4854 26.8874 57.6424 26.8877H61.4861L63.4265 28.8281" fill="#FFC431"/>
<path d="M59.2012 28.8363L65.3299 36.4971L74.9392 30.0908L76.4388 26.0921C76.5628 25.7613 76.7849 25.4762 77.0753 25.2749C77.3657 25.0737 77.7107 24.9658 78.064 24.9658C78.292 24.9658 78.5177 25.0107 78.7283 25.0979C78.9389 25.1852 79.1302 25.313 79.2914 25.4742L80.7049 26.8877L82.6267 24.9658L83.7525 26.0916C84.4734 26.8125 84.8783 27.7901 84.8783 28.8096C84.8783 29.829 84.4734 30.8067 83.7525 31.5275L71.8916 43.3885C71.0299 44.2502 70.0069 44.9337 68.881 45.4001C67.7552 45.8664 66.5485 46.1064 65.3299 46.1064C62.8688 46.1064 60.5085 45.1288 58.7682 43.3885L51.7194 36.3397C51.16 35.7803 50.7162 35.1162 50.4135 34.3852C50.1107 33.6543 49.9549 32.8709 49.9549 32.0798C49.9549 30.7027 50.5019 29.3821 51.4756 28.4084C52.4493 27.4347 53.7699 26.8877 55.1469 26.8877C55.9256 26.8877 56.6943 27.0628 57.3961 27.4001C58.0979 27.7374 58.7148 28.2283 59.2012 28.8363Z" fill="#FFCEB6"/>
<path d="M73.0173 97.9972V103.763H88.3923V99.9191L80.7048 94.1534L73.0173 97.9972Z" fill="#D1E4FF"/>
<path d="M17.2829 65.3253L7.67357 67.2472L5.75169 65.3253L15.3611 53.7941L19.2048 57.6378L17.2829 65.3253Z" fill="#D1E4FF"/>
<path d="M67.2517 59.5597L58.9997 67.8117L51.8767 61.4815L47.3339 68.7486L37.7198 62.9806L39.3293 57.3495C39.9948 55.0178 41.2441 52.8944 42.9592 51.1803C44.3868 49.7521 45.4954 48.0376 46.212 46.1498L59.5643 51.8722L67.2517 59.5597Z" fill="#548AFF"/>
<path d="M69.1736 23.0439V19.2002C69.1736 17.6711 68.5662 16.2045 67.4849 15.1233C66.4037 14.042 64.9371 13.4346 63.408 13.4346H63.408C61.8789 13.4346 60.4123 14.042 59.3311 15.1233C58.2498 16.2045 57.6424 17.6711 57.6424 19.2002V23.0439H69.1736Z" fill="#C47220"/>
<path d="M57.6424 23.0439H59.1106C60.4019 23.0439 61.6677 22.6844 62.7662 22.0055C63.8647 21.3266 64.7524 20.3552 65.3299 19.2002L69.1736 23.0439V24.9658C69.1736 26.495 68.5662 27.9615 67.4849 29.0427C66.4037 30.124 64.9371 30.7314 63.408 30.7314H63.408C61.8789 30.7314 60.4123 30.124 59.3311 29.0427C58.2498 27.9615 57.6424 26.495 57.6424 24.9658L57.6424 23.0439Z" fill="#FFCEB6"/>
<path d="M107.611 46.1066L111.455 36.4972H117.22V46.1066H107.611Z" fill="#62798C"/>
<path d="M117.234 34.5938H111.469C111.085 34.5938 110.709 34.7088 110.391 34.9242C110.073 35.1395 109.827 35.4452 109.684 35.8018L106.324 44.2031H78.7969C78.44 44.2031 78.0901 44.3025 77.7865 44.4902C77.4829 44.6778 77.2375 44.9463 77.0779 45.2655L73.2342 52.953C73.0876 53.246 73.0184 53.5716 73.0331 53.8989C73.0478 54.2262 73.1459 54.5443 73.3182 54.823C73.4904 55.1017 73.731 55.3317 74.0172 55.4912C74.3033 55.6507 74.6255 55.7344 74.9531 55.7344H105.703V98.0156H98.0156C97.7097 98.0156 97.4082 98.0886 97.1362 98.2286C96.8642 98.3686 96.6295 98.5715 96.4517 98.8204L94.1719 102.012V101.859H90.3281V99.9375C90.3281 99.6391 90.2587 99.3449 90.1252 99.078C89.9918 98.8111 89.798 98.579 89.5593 98.4L82.5623 93.1522L80.9461 73.756C80.7562 71.4913 79.7709 69.3669 78.1646 67.7592L61.8331 51.4278L63.2632 47.8528C63.9492 47.9815 64.6457 48.0465 65.3437 48.0469C66.8153 48.0509 68.2731 47.763 69.6327 47.1998C70.9923 46.6367 72.2267 45.8094 73.2644 44.7661L85.1255 32.905C86.2052 31.8229 86.8115 30.3567 86.8115 28.8281C86.8115 27.2996 86.2052 25.8334 85.1255 24.7513L83.9997 23.6254C83.6392 23.265 83.1503 23.0626 82.6406 23.0626C82.1309 23.0626 81.642 23.265 81.2815 23.6254L80.7187 24.1884L80.6646 24.1341C80.3257 23.7933 79.9226 23.5231 79.4785 23.3391C79.0345 23.1552 78.5584 23.0612 78.0778 23.0625C77.3338 23.0649 76.6081 23.2931 75.9966 23.7169C75.3851 24.1407 74.9167 24.7401 74.6533 25.4359L73.3712 28.8542L65.7437 33.9391L64.6505 32.5725C66.4518 32.2785 68.0901 31.3542 69.2731 29.9643C70.4561 28.5745 71.1069 26.8095 71.1094 24.9844V19.2188C71.1103 17.8999 70.7717 16.603 70.1261 15.453C69.4806 14.3029 68.5498 13.3385 67.4234 12.6524C66.2971 11.9664 65.0131 11.5819 63.695 11.5359C62.377 11.49 61.0693 11.7841 59.8979 12.3901L59.6131 11.9629C58.7376 10.6465 57.55 9.56724 56.1562 8.82125C54.7623 8.07526 53.2055 7.68577 51.6246 7.68751C48.8873 7.69315 46.2248 8.58068 44.0316 10.2185C42.8197 11.121 41.3973 11.6987 39.8993 11.8969C38.4014 12.095 36.8776 11.9069 35.4728 11.3505L31.4639 9.74686C31.0903 9.59741 30.6793 9.56896 30.2887 9.66552C29.8982 9.76207 29.5477 9.97877 29.2869 10.2851C29.026 10.5914 28.8678 10.9718 28.8346 11.3728C28.8014 11.7737 28.8949 12.175 29.1019 12.52L31.6462 16.7606C32.8043 18.6783 34.4367 20.2654 36.3862 21.3692C38.3356 22.4729 40.5365 23.0561 42.7767 23.0625C45.3398 23.065 47.8458 22.3062 49.977 20.8824C50.6601 20.4238 51.4396 20.1285 52.2552 20.0193C53.0708 19.91 53.9005 19.9899 54.6803 20.2525L55.7344 20.6039V24.9844C55.7344 24.993 55.7353 25.0014 55.7353 25.01L55.7344 25.0099V24.9844H45.1357C43.3683 24.9796 41.6175 25.3254 39.9846 26.0017C38.3518 26.6781 36.8693 27.6716 35.623 28.9248L25.8538 38.694C24.9138 39.638 24.3287 40.8776 24.1975 42.2033C24.0662 43.5289 24.3968 44.8593 25.1334 45.9692L27.2291 49.1129C27.4888 49.5028 27.882 49.7844 28.3348 49.9046C28.7876 50.0249 29.2688 49.9755 29.6877 49.7658L32.2923 48.4635L32.8373 49.0085C33.2962 49.4672 33.8808 49.7794 34.5172 49.9058C35.1536 50.0323 35.8131 49.9672 36.4125 49.7188C37.0119 49.4704 37.5242 49.0499 37.8846 48.5105C38.2451 47.971 38.4375 47.3368 38.4375 46.6879V43.0773L45.0214 36.4933L46.2786 36.4578L45.0313 43.3182C44.5854 45.79 43.393 48.0658 41.6145 49.8394C39.6705 51.7859 38.2532 54.1947 37.4958 56.8394L35.3328 64.4099L20.3873 56.1069L16.7341 52.4536C16.5452 52.2647 16.3191 52.1173 16.0701 52.0208C15.8212 51.9242 15.5548 51.8805 15.288 51.8926C15.0212 51.9047 14.7599 51.9723 14.5207 52.091C14.2815 52.2097 14.0696 52.377 13.8986 52.5821L4.28927 64.1134C3.98219 64.4818 3.82396 64.9517 3.84566 65.4308C3.86737 65.9099 4.06744 66.3636 4.40657 66.7027L6.32845 68.6246C6.55214 68.8484 6.82766 69.0135 7.13053 69.1052C7.4334 69.1969 7.75424 69.2124 8.06452 69.1502L16.8312 67.3968L28.6318 76.2472C30.8411 77.8972 33.5233 78.7912 36.2808 78.7969C38.4443 78.8037 40.5735 78.2567 42.4658 77.2079C44.3581 76.1591 45.9505 74.6434 47.0913 72.8051L52.3143 64.4482L67.4153 77.871L71.1094 98.1889V101.859H11.5313C11.1994 101.859 10.8731 101.945 10.5843 102.109C10.2955 102.272 10.0539 102.508 9.88316 102.793L4.11753 112.402C3.94256 112.694 3.84812 113.026 3.84384 113.366C3.83956 113.707 3.9256 114.042 4.09318 114.338C4.26076 114.634 4.50387 114.88 4.79769 115.051C5.09151 115.222 5.42553 115.313 5.76563 115.313H117.234C117.744 115.312 118.233 115.11 118.593 114.75C118.954 114.389 119.156 113.9 119.156 113.391V36.5156C119.156 36.0059 118.954 35.5171 118.593 35.1567C118.233 34.7962 117.744 34.5938 117.234 34.5938ZM112.77 38.4375H115.312V44.2031H110.464L112.77 38.4375ZM79.9847 48.0469H115.312V51.8906H78.0628L79.9847 48.0469ZM58.5251 49.3484L48.5771 45.085C48.667 44.7291 48.7469 44.3697 48.8131 44.0058L50.0247 37.3421C50.1373 37.4699 50.2527 37.5958 50.3741 37.7173L57.4233 44.7662C58.0938 45.4371 58.8464 46.0207 59.6632 46.5031L58.5251 49.3484ZM66.4098 38.1147L76.0192 31.7085C76.3545 31.4849 76.611 31.1616 76.7525 30.7843L78.1508 27.0562L79.3597 28.2652C79.7201 28.6256 80.209 28.8281 80.7187 28.8281C81.2285 28.8281 81.7173 28.6256 82.0778 28.2652L82.6207 27.7223C82.8805 28.0927 83.0015 28.5428 82.9625 28.9935C82.9235 29.4442 82.727 29.8668 82.4074 30.1871L70.5466 42.0481C69.1667 43.4279 67.2953 44.2031 65.3439 44.2031C63.3925 44.2032 61.521 43.428 60.1412 42.0482L53.0923 34.9995C52.7101 34.6194 52.4072 34.1672 52.2009 33.6692C51.9946 33.1712 51.8892 32.6373 51.8906 32.0983C51.8906 31.4206 52.1012 30.7597 52.4931 30.207C52.885 29.6542 53.439 29.2368 54.0784 29.0125C54.7178 28.7882 55.4112 28.7681 56.0625 28.9549C56.7139 29.1417 57.2911 29.5263 57.7144 30.0555L63.843 37.7162C64.1434 38.0917 64.5737 38.341 65.0489 38.4147C65.5241 38.4885 66.0097 38.3814 66.4098 38.1147ZM67.2656 24.9844C67.2664 25.7232 67.0539 26.4466 66.6538 27.0677C66.2537 27.6889 65.6828 28.1814 65.0098 28.4862C64.3367 28.791 63.59 28.8951 62.8592 28.7861C62.1285 28.6771 61.4447 28.3596 60.8899 27.8716L60.716 27.6543C60.5547 27.4531 60.3828 27.2608 60.2009 27.0781C59.7936 26.4558 59.5771 25.7281 59.5781 24.9844V24.9731C61.8701 24.8641 64.0293 23.8655 65.5966 22.1897L67.2656 23.8585V24.9844ZM67.1524 18.3094L66.7028 17.8598C66.4875 17.6445 66.2241 17.4834 65.9343 17.3898C65.6445 17.2962 65.3366 17.2729 65.036 17.3216C64.7354 17.3704 64.4507 17.4899 64.2053 17.6703C63.96 17.8507 63.761 18.0868 63.6248 18.3592C63.2436 19.1276 62.6712 19.785 61.9625 20.2682C61.2538 20.7514 60.4327 21.0441 59.5781 21.1182V19.2188C59.5776 18.2788 59.9216 17.3713 60.5452 16.668C61.1687 15.9647 62.0285 15.5144 62.9617 15.4024C63.8949 15.2904 64.8368 15.5244 65.6091 16.0601C66.3814 16.5958 66.9305 17.3961 67.1524 18.3094ZM47.8449 17.6843C45.8633 19.0054 43.4443 19.5005 41.1031 19.0641C38.7618 18.6277 36.6835 17.2945 35.3109 15.3483C37.1839 15.8698 39.1514 15.9557 41.0627 15.5996C42.974 15.2434 44.7784 14.4545 46.3378 13.2934C47.8649 12.1531 49.7187 11.5352 51.6246 11.5313C52.5726 11.5302 53.5061 11.7638 54.342 12.2112C55.1778 12.6585 55.89 13.3057 56.415 14.0951L57.009 14.9861C56.6567 15.5182 56.3721 16.0922 56.1621 16.6949L55.8958 16.6061C54.561 16.1565 53.1407 16.0199 51.7447 16.2069C50.3486 16.3938 49.0143 16.8994 47.8449 17.6843V17.6843ZM44.1489 32.6727C43.6581 32.6865 43.1912 32.8877 42.8441 33.2348L35.1566 40.9223C34.7962 41.2828 34.5937 41.7716 34.5938 42.2813V45.329L34.0309 44.7661C33.7457 44.4809 33.3779 44.2926 32.9797 44.228C32.5815 44.1634 32.1731 44.2257 31.8123 44.4061L29.4862 45.5691L28.3315 43.837C28.086 43.467 27.9758 43.0236 28.0195 42.5817C28.0633 42.1399 28.2584 41.7267 28.5717 41.412L38.3411 31.6427C39.2313 30.7476 40.2901 30.0379 41.4564 29.5548C42.6227 29.0717 43.8733 28.8247 45.1357 28.8281H48.8463C48.6525 29.1991 48.4922 29.5865 48.3671 29.9859C47.8315 30.7941 47.4052 31.6695 47.0991 32.5894L44.1489 32.6727ZM15.504 56.6595L17.0904 58.2459L15.7275 63.6977L8.42134 65.1589L15.504 56.6595ZM36.2808 74.9531C34.3547 74.9491 32.4812 74.3247 30.9379 73.1723L19.4708 64.5719L20.4755 60.5529L35.5824 68.9456C35.8354 69.0862 36.1169 69.1678 36.4058 69.1844C36.6948 69.2009 36.9838 69.152 37.2512 69.0412C37.5186 68.9304 37.7575 68.7607 37.9501 68.5447C38.1427 68.3287 38.2841 68.0719 38.3636 67.7936L38.894 65.9371L44.6809 69.4092L43.8317 70.7679C43.0349 72.0519 41.9227 73.1107 40.601 73.8433C39.2792 74.5758 37.792 74.9579 36.2808 74.9531ZM51.6171 59.5977C51.3404 59.6375 51.0756 59.7372 50.8414 59.8898C50.6072 60.0424 50.409 60.2443 50.2608 60.4814L46.7184 66.1492L39.9874 62.1105L41.1917 57.8953C41.7693 55.8785 42.8501 54.0416 44.3326 52.5573C45.477 51.4143 46.4435 50.1062 47.1998 48.6766L58.4807 53.5112L64.5476 59.5781L58.9352 65.1905L53.1673 60.0635C52.9584 59.8777 52.7114 59.7398 52.4437 59.6593C52.1759 59.5789 51.8938 59.5579 51.6171 59.5977ZM71.0784 76.5312C71.0015 76.1086 70.7853 75.7239 70.4642 75.4385L61.8131 67.7487L67.2656 62.2961L75.4467 70.4772C76.4105 71.4418 77.0017 72.7164 77.1155 74.0752L78.6954 93.0348L74.4637 95.1506L71.0784 76.5312ZM74.9531 99.2034L80.5159 96.422L86.4844 100.898V101.859H74.9531V99.2034ZM12.6193 105.703H91.5355L87.4173 111.469H9.16011L12.6193 105.703ZM115.312 111.469H92.1409L99.0047 101.859H115.312V111.469ZM115.312 98.0156H109.547V55.7344H115.312V98.0156Z" fill="black"/>
</svg>
